<svg xmlns="http://www.w3.org/2000/svg" width="22.333" height="21.563" viewBox="0 0 22.333 21.563">
  <g id="ticket-svgrepo-com" transform="translate(-58.242 -60.463) rotate(-39)">
    <g id="Group_67" data-name="Group 67" transform="translate(0 92.547)">
      <g id="Group_66" data-name="Group 66" transform="translate(0 0)">
        <path id="Path_37" data-name="Path 37" d="M17.513,97.23a.768.768,0,0,0,.7-.8V93.351a.765.765,0,0,0-.719-.8H.719a.765.765,0,0,0-.719.8v3.073a.765.765,0,0,0,.719.8,1.83,1.83,0,0,1,0,3.637.765.765,0,0,0-.719.8v3.073a.765.765,0,0,0,.719.8H17.491a.765.765,0,0,0,.719-.8v-3.075a.768.768,0,0,0-.7-.8,1.836,1.836,0,0,1,0-3.634ZM5.788,103.939H1.438v-1.561a3.538,3.538,0,0,0,0-6.663V94.155h4.35Zm9.578-2.505a3,3,0,0,0,1.406.923v1.582H7.226V94.155h9.546v1.582a3,3,0,0,0-1.406.923,3.721,3.721,0,0,0,0,4.774Z" transform="translate(0 -92.547)"/>
        <path id="Path_38" data-name="Path 38" d="M231.756,198.673H226.78a.8.8,0,1,0,0,1.6h4.976a.8.8,0,1,0,0-1.6Z" transform="translate(-218.371 -194.448)"/>
        <path id="Path_39" data-name="Path 39" d="M231.756,272.895H226.78a.8.8,0,1,0,0,1.6h4.976a.8.8,0,1,0,0-1.6Z" transform="translate(-218.371 -265.716)"/>
      </g>
    </g>
  </g>
</svg>
