<svg xmlns="http://www.w3.org/2000/svg" width="16" height="16" viewBox="0 0 16 16">
  <g id="tv-svgrepo-com" transform="translate(-2 -2)">
    <path id="Path_45" data-name="Path 45" d="M16.646,2.225a.769.769,0,0,1,0,1.088l-4.1,4.1a.769.769,0,0,1-1.088,0L8.379,4.339A.769.769,0,0,1,9.467,3.251L12,5.784l3.559-3.559A.769.769,0,0,1,16.646,2.225Z" transform="translate(-2.182)" fill="#f9f9f9" fill-rule="evenodd"/>
    <path id="Path_46" data-name="Path 46" d="M14.693,11.456a.916.916,0,0,1,0,1.088l-2.445,3.077a.527.527,0,0,1-.865,0l-1.2-1.507L8.172,16.646a.527.527,0,0,1-.865,0,.916.916,0,0,1,0-1.088l2.445-3.077a.527.527,0,0,1,.865,0l1.2,1.507,2.013-2.533A.527.527,0,0,1,14.693,11.456Z" transform="translate(-1 -2.571)" fill="#f9f9f9" fill-rule="evenodd"/>
    <path id="Path_47" data-name="Path 47" d="M10,7.254c-1.748,0-4.139.139-5.618.239a.948.948,0,0,0-.906.822c-.111,1.07-.245,2.6-.245,3.736s.134,2.667.245,3.736a.948.948,0,0,0,.906.823c1.479.1,3.87.239,5.618.239s4.139-.139,5.618-.239a.948.948,0,0,0,.906-.823c.111-1.07.245-2.6.245-3.736s-.134-2.667-.245-3.736a.948.948,0,0,0-.906-.822C14.139,7.393,11.748,7.254,10,7.254Zm-5.706-.91C5.773,6.245,8.2,6.1,10,6.1s4.227.142,5.706.242A2.144,2.144,0,0,1,17.749,8.2c.111,1.073.251,2.649.251,3.848s-.139,2.775-.251,3.848a2.144,2.144,0,0,1-2.043,1.86C14.227,17.858,11.8,18,10,18s-4.227-.142-5.706-.242A2.144,2.144,0,0,1,2.251,15.9C2.139,14.826,2,13.25,2,12.051s.139-2.775.251-3.848A2.144,2.144,0,0,1,4.294,6.344Z" fill="#f9f9f9" fill-rule="evenodd"/>
  </g>
</svg>
