<svg xmlns="http://www.w3.org/2000/svg" xmlns:xlink="http://www.w3.org/1999/xlink" width="188.162" height="312.394" viewBox="0 0 188.162 312.394">
  <defs>
    <clipPath id="clip-path">
      <rect id="Rectangle_10" data-name="Rectangle 10" width="184.852" height="309.394" fill="rgba(0,0,0,0)"/>
    </clipPath>
    <clipPath id="clip-path-2">
      <path id="Path_16" data-name="Path 16" d="M133.246,368.979a22.339,22.339,0,1,0,22.338-22.339,22.339,22.339,0,0,0-22.338,22.339" transform="translate(-133.246 -346.64)" fill="none"/>
    </clipPath>
    <clipPath id="clip-path-3">
      <rect id="Rectangle_11" data-name="Rectangle 11" width="184.852" height="309.394" fill="none"/>
    </clipPath>
  </defs>
  <g id="Group_7" data-name="Group 7" transform="translate(3.31 3)">
    <g id="Group_2" data-name="Group 2" transform="translate(-3.31 -3)">
      <g id="Group_1" data-name="Group 1" clip-path="url(#clip-path)">
        <path id="Path_1" data-name="Path 1" d="M177.231,220.517a23.56,23.56,0,0,1,10.038,2.905l3.96-118.392s.611-7.949-8.256-8.561-9.173,7.95-9.173,7.95l3.363,114.658Z" transform="translate(-86.7 -48.107)" fill="currentColor"/>
        <path id="Path_2" data-name="Path 2" d="M184.98,436.006l.513,11.106H191l.437-13.068a23.512,23.512,0,0,1-6.453,1.962" transform="translate(-92.276 -216.521)" fill="currentColor"/>
        <path id="Path_3" data-name="Path 3" d="M227.675,281.694l5.5-1.223s-1.29-82.763,26.7-148.888c1.49-3.521,3.187-6.948,4.946-10.342,1.725-3.329,3.885-9.807-3.208-12.91a10.257,10.257,0,0,0-11.924,5.2s-18.651,39.442-20.485,84.388c0,0-3.056,49.768-1.529,83.777" transform="translate(-113.361 -53.855)" fill="currentColor"/>
        <path id="Path_4" data-name="Path 4" d="M103.729,233.911a23.725,23.725,0,0,1,6.643-4.443q-.516-4.634-1.237-9.242c-2.009-12.688-2.943-19.613-3.359-22.988-.384-3.124-.831-6.238-1.4-9.334-6.042-32.919-20.311-63.394-20.311-63.394s-8.867-19.263-18.04-12.842c-6.879,4.816-3.439,11.7-1.289,14.834a105.454,105.454,0,0,1,7.648,12.935c12.374,25.1,25.44,67.626,25.44,67.626a205.546,205.546,0,0,1,5.9,26.848" transform="translate(-30.903 -55.051)" fill="currentColor"/>
        <path id="Path_5" data-name="Path 5" d="M153.811,431.945c.634,8.539.845,14.12.845,14.12h4.281c.512-.512.523-5.237.275-11.783a23.55,23.55,0,0,1-5.4-2.336" transform="translate(-76.728 -215.474)" fill="currentColor"/>
        <path id="Path_6" data-name="Path 6" d="M137.165,8.533l-4.353,3.907a5.754,5.754,0,0,1-1.958,5.579,5.14,5.14,0,0,1-3.82.919c.359,2.313-.217,4.4-1.755,5.553a4.933,4.933,0,0,1-4.063.723,5.36,5.36,0,0,1-2.027,4.141,5.67,5.67,0,0,1-5.679.411l-4.292,3.855a4.892,4.892,0,1,1-6.536-7.281l5.124-4.6a5.548,5.548,0,0,1,2.027-4.869,4.961,4.961,0,0,1,3.068-.97c-.369-2.326.207-4.431,1.754-5.588a5.2,5.2,0,0,1,4.808-.528A5.4,5.4,0,0,1,121.5,5.536a5.5,5.5,0,0,1,5.068-.637l4.063-3.647a4.892,4.892,0,0,1,6.536,7.281" transform="translate(-50.413)" fill="currentColor"/>
        <path id="Path_7" data-name="Path 7" d="M224.558,65.152l-5.664-1.463a5.754,5.754,0,0,1-5.73,1.457,5.139,5.139,0,0,1-2.879-2.674c-1.727,1.58-3.785,2.255-5.6,1.612a4.935,4.935,0,0,1-2.851-2.983,5.363,5.363,0,0,1-4.571.6,5.672,5.672,0,0,1-3.486-4.5L188.2,55.762a4.892,4.892,0,0,1,2.447-9.474l6.667,1.722A5.545,5.545,0,0,1,202.486,47a4.96,4.96,0,0,1,2.505,2.017c1.734-1.594,3.806-2.279,5.625-1.632a5.2,5.2,0,0,1,3.1,3.712,5.4,5.4,0,0,1,4.666-.656,5.5,5.5,0,0,1,3.335,3.868L227,55.678a4.892,4.892,0,0,1-2.447,9.474" transform="translate(-92.05 -23.013)" fill="currentColor"/>
        <path id="Path_8" data-name="Path 8" d="M177.923,368.979a22.339,22.339,0,1,1-22.338-22.338,22.339,22.339,0,0,1,22.338,22.338" transform="translate(-66.469 -172.92)" fill="currentColor"/>
      </g>
    </g>
    <g id="Group_4" data-name="Group 4" transform="translate(66.777 173.72)">
      <g id="Group_3" data-name="Group 3" clip-path="url(#clip-path-2)">
        <path id="Path_9" data-name="Path 9" d="M146.876,391.749a.421.421,0,0,1-.139-.023.433.433,0,0,1-.272-.549c.082-.24,8.391-24.118,30.425-32.548a.433.433,0,1,1,.31.809c-21.646,8.282-29.833,31.781-29.913,32.017a.434.434,0,0,1-.41.294" transform="translate(-139.829 -352.606)" fill="#9a73e1"/>
        <path id="Path_10" data-name="Path 10" d="M151.477,427.007a.433.433,0,0,1-.41-.572s.074-.219.228-.623a.433.433,0,1,1,.81.308c-.145.381-.216.589-.217.593a.433.433,0,0,1-.41.294" transform="translate(-142.124 -385.995)" fill="#9a73e1"/>
        <path id="Path_11" data-name="Path 11" d="M153.217,394.172a.423.423,0,0,1-.17-.035.433.433,0,0,1-.229-.568c.155-.363.331-.764.53-1.2a.433.433,0,1,1,.788.359c-.2.429-.369.824-.521,1.181a.434.434,0,0,1-.4.263m1.266-2.758a.433.433,0,0,1-.388-.624q.275-.562.588-1.17a.433.433,0,1,1,.77.4q-.309.6-.581,1.155a.433.433,0,0,1-.389.242m1.4-2.691a.434.434,0,0,1-.379-.642q.307-.557.642-1.14a.433.433,0,1,1,.75.432q-.331.574-.633,1.126a.433.433,0,0,1-.38.225m1.523-2.623a.429.429,0,0,1-.226-.064.433.433,0,0,1-.143-.6q.335-.547.694-1.109a.433.433,0,1,1,.73.466q-.354.555-.685,1.1a.433.433,0,0,1-.37.207m1.642-2.55a.433.433,0,0,1-.358-.676q.362-.534.745-1.076a.433.433,0,1,1,.707.5q-.378.535-.735,1.062a.433.433,0,0,1-.359.19m1.761-2.469a.433.433,0,0,1-.346-.693q.388-.517.8-1.039a.433.433,0,0,1,.682.535q-.4.513-.786,1.024a.432.432,0,0,1-.347.173m1.88-2.379a.433.433,0,0,1-.332-.71q.415-.5.848-1a.433.433,0,1,1,.654.568q-.428.491-.836.983a.433.433,0,0,1-.333.156m2-2.279a.433.433,0,0,1-.318-.727q.442-.477.9-.951a.433.433,0,1,1,.622.6q-.452.465-.887.936a.432.432,0,0,1-.318.139m2.12-2.167a.433.433,0,0,1-.3-.744q.468-.453.953-.9a.433.433,0,0,1,.587.638q-.477.438-.938.884a.431.431,0,0,1-.3.122m2.24-2.043a.433.433,0,0,1-.283-.761q.494-.425,1-.841a.433.433,0,1,1,.548.671q-.5.41-.987.827a.429.429,0,0,1-.282.1m2.357-1.9a.433.433,0,0,1-.262-.778q.519-.394,1.055-.777a.433.433,0,0,1,.5.7q-.525.377-1.036.764a.431.431,0,0,1-.261.088m2.472-1.753a.433.433,0,0,1-.24-.794q.544-.36,1.1-.708a.433.433,0,1,1,.457.736q-.549.341-1.082.695a.432.432,0,0,1-.239.072m2.58-1.588a.433.433,0,0,1-.215-.809q.567-.323,1.148-.633a.433.433,0,0,1,.407.765q-.571.3-1.127.621a.431.431,0,0,1-.214.057m2.681-1.41a.433.433,0,0,1-.188-.823q.587-.284,1.189-.553a.433.433,0,0,1,.353.791q-.589.263-1.166.542a.434.434,0,0,1-.188.043" transform="translate(-142.992 -355.371)" fill="#9a73e1"/>
        <path id="Path_12" data-name="Path 12" d="M210.467,363.432a.433.433,0,0,1-.161-.835c.2-.081.406-.161.612-.24a.433.433,0,0,1,.309.809q-.3.117-.6.235a.423.423,0,0,1-.161.031" transform="translate(-171.551 -354.466)" fill="#9a73e1"/>
        <path id="Path_13" data-name="Path 13" d="M143.1,418.632a.434.434,0,0,1-.41-.572s.074-.219.228-.623a.433.433,0,1,1,.81.308c-.145.381-.215.589-.217.594a.434.434,0,0,1-.41.294" transform="translate(-137.946 -381.817)" fill="#9a73e1"/>
        <path id="Path_14" data-name="Path 14" d="M144.843,385.8a.423.423,0,0,1-.17-.035.433.433,0,0,1-.229-.568c.155-.363.331-.764.53-1.2a.433.433,0,1,1,.788.359c-.2.429-.369.824-.521,1.181a.434.434,0,0,1-.4.263m1.266-2.758a.433.433,0,0,1-.388-.624q.275-.562.588-1.17a.433.433,0,1,1,.77.4q-.309.6-.581,1.155a.433.433,0,0,1-.389.242m1.4-2.691a.434.434,0,0,1-.379-.642q.307-.557.642-1.14a.433.433,0,1,1,.75.432q-.331.574-.633,1.126a.433.433,0,0,1-.38.225m1.523-2.623a.429.429,0,0,1-.226-.064.433.433,0,0,1-.143-.6q.335-.547.694-1.109a.433.433,0,1,1,.73.466q-.354.555-.685,1.1a.433.433,0,0,1-.37.207m1.642-2.55a.433.433,0,0,1-.358-.676q.362-.534.745-1.076a.433.433,0,1,1,.707.5q-.378.535-.735,1.062a.433.433,0,0,1-.359.19m1.761-2.469a.433.433,0,0,1-.346-.693q.388-.517.8-1.039a.433.433,0,0,1,.682.535q-.4.513-.786,1.024a.432.432,0,0,1-.347.173m1.88-2.379a.433.433,0,0,1-.332-.71q.415-.5.848-1a.433.433,0,1,1,.654.568q-.428.491-.836.983a.433.433,0,0,1-.333.156m2-2.279a.434.434,0,0,1-.318-.728q.442-.476.9-.95a.433.433,0,1,1,.622.6q-.452.465-.887.936a.431.431,0,0,1-.318.139m2.12-2.167a.433.433,0,0,1-.3-.744q.468-.453.953-.9a.433.433,0,0,1,.587.638q-.477.438-.938.884a.431.431,0,0,1-.3.122m2.24-2.043a.433.433,0,0,1-.283-.761q.494-.425,1-.841a.433.433,0,1,1,.548.671q-.5.41-.987.827a.429.429,0,0,1-.282.1m2.357-1.9a.433.433,0,0,1-.262-.778q.519-.394,1.055-.778a.433.433,0,0,1,.5.7q-.526.377-1.036.764a.431.431,0,0,1-.261.088m2.472-1.753a.433.433,0,0,1-.24-.795q.544-.359,1.1-.708a.433.433,0,1,1,.457.736q-.549.341-1.082.695a.432.432,0,0,1-.239.072m2.58-1.588a.433.433,0,0,1-.215-.809q.567-.323,1.148-.633a.433.433,0,0,1,.407.765q-.571.3-1.127.621a.431.431,0,0,1-.214.057m2.681-1.41a.433.433,0,0,1-.188-.823q.587-.284,1.189-.553a.433.433,0,0,1,.353.791q-.589.263-1.166.542a.434.434,0,0,1-.188.043" transform="translate(-138.815 -351.194)" fill="#9a73e1"/>
        <path id="Path_15" data-name="Path 15" d="M202.093,355.059a.433.433,0,0,1-.161-.835q.3-.122.612-.24a.433.433,0,0,1,.31.809q-.3.116-.6.235a.423.423,0,0,1-.161.031" transform="translate(-167.374 -350.289)" fill="#9a73e1"/>
      </g>
    </g>
    <g id="Group_6" data-name="Group 6">
      <g id="Group_5" data-name="Group 5" clip-path="url(#clip-path-3)">
        <path id="Path_17" data-name="Path 17" d="M15.175,543.538a2.969,2.969,0,0,1-1.644-.376q-.659-.469-1.832-3.477l-9.3-23.3H0v-1.268H12.685v1.268H8.974l8.034,19.874L24.1,516.381H20.344v-1.268h7.987v1.268H25.981l-9.819,27.157Z" transform="translate(0 -256.962)" fill="currentColor"/>
        <path id="Path_18" data-name="Path 18" d="M58.406,543.3v-1.268h3.759V516.381H58.406v-1.268H72.5v1.268H68.742v25.653h2.49A1.428,1.428,0,0,1,72.5,543.3Z" transform="translate(-29.136 -256.962)" fill="currentColor"/>
        <path id="Path_19" data-name="Path 19" d="M90.281,543.3v-1.268H94.04V516.381H90.281v-1.268h15.693a11.11,11.11,0,0,1,6.389,1.785,6.479,6.479,0,0,1,3.1,5.591,7.319,7.319,0,0,1-.282,2.02q-1.128,3.993-6.06,5.356l7.235,12.216h.611a2.42,2.42,0,0,1,.47.047q.751.141.752,1.175l-8.27.047-7-12.921h-2.3v11.605h3.759V543.3Zm10.336-26.922V529.02h2.913a4.455,4.455,0,0,0,2.49-.705q2.442-1.55,2.443-5.591a9.732,9.732,0,0,0-.329-2.537,4.783,4.783,0,0,0-4.98-3.806Z" transform="translate(-45.036 -256.962)" fill="currentColor"/>
        <path id="Path_20" data-name="Path 20" d="M151.979,543.3v-1.268h4.463V516.381h-.8a5.649,5.649,0,0,0-2.724.611q-1.646.94-2.679,3.947l-1.456,4.228h-1.41l.188-10.054H171.9l.188,10.054h-1.41l-1.457-4.228q-.329-.892-.61-1.551a4.9,4.9,0,0,0-4.792-3.007h-.8v25.653h3.195a1.427,1.427,0,0,1,1.268,1.268Z" transform="translate(-73.517 -256.962)" fill="currentColor"/>
        <path id="Path_21" data-name="Path 21" d="M199.031,515.113h14.095v1.268h-3.759v16.209a21.743,21.743,0,0,0,.423,4.6q1.128,5.168,5.873,5.168,7.517-.047,7.564-9.773V516.381h-3.759v-1.268h9.256v1.268h-3.759v15.928a18.812,18.812,0,0,1-.752,5.685q-1.973,5.779-9.537,5.779-11.794-.047-11.887-10.806V516.381h-3.759Z" transform="translate(-99.286 -256.962)" fill="currentColor"/>
        <path id="Path_22" data-name="Path 22" d="M276.557,543.3v-1.268h3.336l-3.524-9.021h-9.35l-3.383,9.021h2.631a2.664,2.664,0,0,1,.517.047q.61.095.61,1.221H258.75v-1.268h3.007l10.289-26.922h3.477l11.088,26.922h1.41a2.664,2.664,0,0,1,.517.047q.61.095.61,1.221Zm-4.933-22.5L267.582,531.6H275.8Z" transform="translate(-129.076 -256.962)" fill="currentColor"/>
        <path id="Path_23" data-name="Path 23" d="M321.281,543.3v-1.268h3.759V516.381h-3.759v-1.268h14.33v1.268h-3.994v25.653h4.839a6.2,6.2,0,0,0,2.49-.47q1.833-.892,2.819-4.04l1.363-4.417h1.363l-.188,10.2Z" transform="translate(-160.269 -256.962)" fill="currentColor"/>
        <path id="Path_24" data-name="Path 24" d="M17.638,603.637v1.155H8.708V592.162h8.66v1.154H10.043v4.493h6.531v1.137H10.043v4.691Z" transform="translate(-4.344 -295.397)" fill="currentColor"/>
        <path id="Path_25" data-name="Path 25" d="M77.072,592.162h1.335v11.474h7.072v1.155H77.072Z" transform="translate(-38.447 -295.397)" fill="currentColor"/>
        <path id="Path_26" data-name="Path 26" d="M151.486,603.637v1.155h-8.931V592.162h8.66v1.154H143.89v4.493h6.531v1.137H143.89v4.691Z" transform="translate(-71.113 -295.397)" fill="currentColor"/>
        <path id="Path_27" data-name="Path 27" d="M219.066,592.162l-5.593,12.629h-1.317l-5.593-12.629h1.443l4.835,10.97,4.871-10.97Z" transform="translate(-103.043 -295.397)" fill="currentColor"/>
        <path id="Path_28" data-name="Path 28" d="M288.358,603.637v1.155h-8.931V592.162h8.66v1.154h-7.325v4.493h6.531v1.137h-6.531v4.691Z" transform="translate(-139.391 -295.397)" fill="currentColor"/>
        <path id="Path_29" data-name="Path 29" d="M358.345,592.162v12.629h-1.1l-8.119-10.248v10.248h-1.336V592.162h1.1l8.137,10.248V592.162Z" transform="translate(-173.494 -295.397)" fill="currentColor"/>
      </g>
    </g>
  </g>
</svg>
