<svg xmlns="http://www.w3.org/2000/svg" xmlns:xlink="http://www.w3.org/1999/xlink" width="108.555" height="35.737" viewBox="0 0 108.555 35.737">
  <defs>
    <clipPath id="clip-path">
      <path id="Path_16" data-name="Path 16" d="M133.246,350.1a3.462,3.462,0,1,0,3.462-3.462,3.462,3.462,0,0,0-3.462,3.462" transform="translate(-133.246 -346.64)" fill="none"/>
    </clipPath>
  </defs>
  <g id="Logo" transform="translate(-26.111 -52)">
    <g id="Wicket" transform="translate(18.193 52)">
      <g id="Group_113" data-name="Group 113" transform="translate(7.919)">
        <path id="Path_1" data-name="Path 1" d="M174.333,115.667a3.651,3.651,0,0,1,1.556.45l.614-18.348a1.248,1.248,0,0,0-1.279-1.327,1.266,1.266,0,0,0-1.422,1.232l.521,17.769Z" transform="translate(-165.114 -88.948)" fill="#fff"/>
        <path id="Path_2" data-name="Path 2" d="M184.98,434.348l.079,1.721h.853l.068-2.025a3.644,3.644,0,0,1-1,.3" transform="translate(-175.424 -400.333)" fill="#fff"/>
        <path id="Path_3" data-name="Path 3" d="M227.314,134.884l.853-.19s-.2-12.826,4.137-23.074c.231-.546.494-1.077.767-1.6s.6-1.52-.5-2a1.59,1.59,0,0,0-1.848.806,38.1,38.1,0,0,0-3.175,13.078s-.474,7.713-.237,12.984" transform="translate(-214.409 -99.574)" fill="#fff"/>
        <path id="Path_4" data-name="Path 4" d="M68.425,129.505a3.676,3.676,0,0,1,1.03-.689q-.08-.718-.192-1.432c-.311-1.966-.456-3.04-.521-3.563-.06-.484-.129-.967-.217-1.447a46.064,46.064,0,0,0-3.148-9.825s-1.374-2.985-2.8-1.99a1.538,1.538,0,0,0-.2,2.3,16.342,16.342,0,0,1,1.185,2,90.234,90.234,0,0,1,3.943,10.481,31.856,31.856,0,0,1,.915,4.161" transform="translate(-61.95 -101.786)" fill="#fff"/>
        <path id="Path_5" data-name="Path 5" d="M153.811,431.945c.1,1.323.131,2.188.131,2.188h.663a6.836,6.836,0,0,0,.043-1.826,3.649,3.649,0,0,1-.837-.362" transform="translate(-146.676 -398.397)" fill="#fff"/>
        <path id="Path_6" data-name="Path 6" d="M106.655,1.322l-.675.606a.892.892,0,0,1-.3.865.8.8,0,0,1-.592.142.871.871,0,0,1-.272.861.764.764,0,0,1-.63.112.831.831,0,0,1-.314.642.879.879,0,0,1-.88.064l-.665.6a.758.758,0,1,1-1.013-1.128l.794-.713a.86.86,0,0,1,.314-.755.769.769,0,0,1,.475-.15.873.873,0,0,1,.272-.866.806.806,0,0,1,.745-.082.836.836,0,0,1,.315-.659.853.853,0,0,1,.785-.1l.63-.565a.758.758,0,0,1,1.013,1.128" transform="translate(-98.022)" fill="#fff"/>
        <path id="Path_7" data-name="Path 7" d="M190.73,49.08l-.878-.227a.892.892,0,0,1-.888.226.8.8,0,0,1-.446-.414.871.871,0,0,1-.867.25.765.765,0,0,1-.442-.462.831.831,0,0,1-.708.094.879.879,0,0,1-.54-.7l-.866-.223a.758.758,0,1,1,.379-1.468l1.033.267a.859.859,0,0,1,.8-.156.769.769,0,0,1,.388.313.874.874,0,0,1,.872-.253.806.806,0,0,1,.481.575.836.836,0,0,1,.723-.1.852.852,0,0,1,.517.6l.819.212a.758.758,0,1,1-.379,1.468" transform="translate(-175.006 -42.549)" fill="#fff"/>
        <path id="Path_8" data-name="Path 8" d="M140.17,350.1a3.462,3.462,0,1,1-3.462-3.462,3.462,3.462,0,0,1,3.462,3.462" transform="translate(-127.709 -319.718)" fill="#fff"/>
      </g>
      <g id="Ball" transform="translate(13.456 26.923)">
        <g id="Group_3" data-name="Group 3" clip-path="url(#clip-path)">
          <path id="Path_9" data-name="Path 9" d="M146.509,363.737a.065.065,0,0,1-.022,0,.067.067,0,0,1-.042-.085,8.981,8.981,0,0,1,4.715-5.044.067.067,0,1,1,.048.125,8.84,8.84,0,0,0-4.636,4.962.067.067,0,0,1-.064.046" transform="translate(-145.417 -357.67)" fill="#9a73e1"/>
          <path id="Path_10" data-name="Path 10" d="M151.111,425.76a.067.067,0,0,1-.064-.089s.011-.034.035-.1a.067.067,0,1,1,.126.048c-.022.059-.033.091-.034.092a.067.067,0,0,1-.064.046" transform="translate(-149.662 -419.404)" fill="#9a73e1"/>
          <path id="Path_11" data-name="Path 11" d="M152.851,368.8a.066.066,0,0,1-.026-.005.067.067,0,0,1-.035-.088q.036-.084.082-.186a.067.067,0,1,1,.122.056q-.045.1-.081.183a.067.067,0,0,1-.062.041m.2-.427a.066.066,0,0,1-.029-.007.067.067,0,0,1-.031-.09q.043-.087.091-.181a.067.067,0,1,1,.119.061q-.048.093-.09.179a.067.067,0,0,1-.06.037m.217-.417a.067.067,0,0,1-.059-.1q.048-.086.1-.177a.067.067,0,1,1,.116.067q-.051.089-.1.174a.067.067,0,0,1-.059.035m.236-.407a.067.067,0,0,1-.057-.1q.052-.085.107-.172a.067.067,0,1,1,.113.072q-.055.086-.106.17a.067.067,0,0,1-.057.032m.255-.4a.067.067,0,0,1-.055-.1q.056-.083.115-.167a.067.067,0,1,1,.11.077q-.059.083-.114.165a.067.067,0,0,1-.056.03m.273-.383a.067.067,0,0,1-.054-.107q.06-.08.123-.161a.067.067,0,0,1,.106.083q-.062.08-.122.159a.067.067,0,0,1-.054.027m.291-.369a.067.067,0,0,1-.051-.11q.064-.077.131-.154a.067.067,0,1,1,.1.088q-.066.076-.13.152a.067.067,0,0,1-.052.024m.31-.353a.067.067,0,0,1-.049-.113q.069-.074.14-.147a.067.067,0,1,1,.1.094q-.07.072-.137.145a.067.067,0,0,1-.049.021m.329-.336a.067.067,0,0,1-.047-.115q.073-.07.148-.139a.067.067,0,0,1,.091.1q-.074.068-.145.137a.067.067,0,0,1-.047.019m.347-.317a.067.067,0,0,1-.044-.118q.077-.066.156-.13a.067.067,0,1,1,.085.1q-.078.063-.153.128a.066.066,0,0,1-.044.016m.365-.3a.067.067,0,0,1-.041-.121q.08-.061.163-.12a.067.067,0,1,1,.078.109q-.081.059-.161.118a.067.067,0,0,1-.04.014m.383-.272a.067.067,0,0,1-.037-.123q.084-.056.171-.11a.067.067,0,1,1,.071.114q-.085.053-.168.108a.067.067,0,0,1-.037.011m.4-.246a.067.067,0,0,1-.033-.125q.088-.05.178-.1a.067.067,0,0,1,.063.119q-.088.047-.175.1a.067.067,0,0,1-.033.009m.416-.219a.067.067,0,0,1-.029-.128q.091-.044.184-.086a.067.067,0,0,1,.055.123q-.091.041-.181.084a.068.068,0,0,1-.029.007" transform="translate(-151.266 -362.784)" fill="#9a73e1"/>
          <path id="Path_12" data-name="Path 12" d="M210.1,362.5a.067.067,0,0,1-.025-.129l.095-.037a.067.067,0,0,1,.048.125l-.093.036a.065.065,0,0,1-.025,0" transform="translate(-204.069 -361.11)" fill="#9a73e1"/>
          <path id="Path_13" data-name="Path 13" d="M142.736,417.386a.066.066,0,0,1-.021,0,.067.067,0,0,1-.042-.085s.011-.034.035-.1a.067.067,0,0,1,.126.048c-.022.059-.033.091-.034.092a.067.067,0,0,1-.064.046" transform="translate(-141.937 -411.68)" fill="#9a73e1"/>
          <path id="Path_14" data-name="Path 14" d="M144.477,360.422a.066.066,0,0,1-.026-.005.067.067,0,0,1-.035-.088q.036-.084.082-.186a.067.067,0,0,1,.122.056c-.03.066-.057.128-.081.183a.067.067,0,0,1-.062.041m.2-.427a.066.066,0,0,1-.029-.007.067.067,0,0,1-.031-.09q.043-.087.091-.181a.067.067,0,1,1,.119.061q-.048.093-.09.179a.067.067,0,0,1-.06.038m.217-.417a.067.067,0,0,1-.059-.1q.048-.086.1-.177a.067.067,0,1,1,.116.067q-.051.089-.1.174a.067.067,0,0,1-.059.035m.236-.407a.067.067,0,0,1-.057-.1q.052-.085.107-.172a.067.067,0,1,1,.113.072q-.055.086-.106.17a.067.067,0,0,1-.057.032m.255-.4a.067.067,0,0,1-.055-.1q.056-.083.115-.167a.067.067,0,1,1,.11.077q-.059.083-.114.165a.067.067,0,0,1-.056.03m.273-.383a.067.067,0,0,1-.054-.107q.06-.08.123-.161a.067.067,0,0,1,.106.083q-.062.08-.122.159a.067.067,0,0,1-.054.027m.291-.369a.067.067,0,0,1-.051-.11q.064-.077.131-.154a.067.067,0,1,1,.1.088q-.066.076-.13.152a.067.067,0,0,1-.052.024m.31-.353a.067.067,0,0,1-.049-.113q.069-.074.14-.147a.067.067,0,1,1,.1.094q-.07.072-.137.145a.067.067,0,0,1-.049.021m.329-.336a.067.067,0,0,1-.047-.115q.073-.07.148-.139a.067.067,0,0,1,.091.1q-.074.068-.145.137a.067.067,0,0,1-.047.019m.347-.317a.067.067,0,0,1-.044-.118q.077-.066.156-.13a.067.067,0,1,1,.085.1q-.078.063-.153.128a.066.066,0,0,1-.044.016m.365-.3a.067.067,0,0,1-.041-.121q.081-.061.164-.121a.067.067,0,0,1,.078.109q-.082.058-.161.118a.067.067,0,0,1-.04.014m.383-.272a.067.067,0,0,1-.037-.123q.084-.056.171-.11a.067.067,0,0,1,.071.114q-.085.053-.168.108a.067.067,0,0,1-.037.011m.4-.246a.067.067,0,0,1-.033-.125q.088-.05.178-.1a.067.067,0,0,1,.063.118q-.088.047-.175.1a.067.067,0,0,1-.033.009m.416-.219a.067.067,0,0,1-.029-.128q.091-.044.184-.086a.067.067,0,0,1,.055.123q-.091.041-.181.084a.068.068,0,0,1-.029.007" transform="translate(-143.542 -355.059)" fill="#9a73e1"/>
          <path id="Path_15" data-name="Path 15" d="M201.726,354.126A.067.067,0,0,1,201.7,354l.095-.037a.067.067,0,0,1,.048.125l-.093.036a.066.066,0,0,1-.025,0" transform="translate(-196.346 -353.387)" fill="#9a73e1"/>
        </g>
      </g>
    </g>
    <g id="Group_6" data-name="Group 6" transform="translate(3.352 30.156)">
      <g id="Group_112" data-name="Group 112" transform="translate(49 27.844)">
        <g id="Virtual">
          <path id="Path_17" data-name="Path 17" d="M6.758,527.771a1.322,1.322,0,0,1-.732-.167,4.3,4.3,0,0,1-.816-1.548L1.067,515.678H0v-.565H5.649v.565H4l3.578,8.85,3.159-8.85H9.059v-.565h3.557v.565H11.57L7.2,527.771Z" transform="translate(0 -515.113)" fill="#fff"/>
          <path id="Path_18" data-name="Path 18" d="M58.406,527.666V527.1H60.08V515.678H58.406v-.565h6.277v.565H63.009V527.1h1.109a.636.636,0,0,1,.565.565Z" transform="translate(-45.372 -515.113)" fill="#fff"/>
          <path id="Path_19" data-name="Path 19" d="M90.281,527.666V527.1h1.674V515.678H90.281v-.565h6.988a4.947,4.947,0,0,1,2.845.795,2.885,2.885,0,0,1,1.381,2.49,3.26,3.26,0,0,1-.126.9,3.48,3.48,0,0,1-2.7,2.385l3.222,5.44h.272a1.081,1.081,0,0,1,.209.021q.334.063.335.523l-3.682.021-3.117-5.754H94.884V527.1h1.674v.565Zm4.6-11.988v5.628h1.3a1.984,1.984,0,0,0,1.109-.314,2.716,2.716,0,0,0,1.088-2.49,4.334,4.334,0,0,0-.146-1.13,2.13,2.13,0,0,0-2.218-1.695Z" transform="translate(-70.133 -515.113)" fill="#fff"/>
          <path id="Path_20" data-name="Path 20" d="M149.425,527.666V527.1h1.987V515.678h-.356a2.515,2.515,0,0,0-1.213.272,3.073,3.073,0,0,0-1.193,1.757L148,519.59h-.628l.084-4.477H158.3l.084,4.477h-.628l-.649-1.883q-.147-.4-.272-.69a2.182,2.182,0,0,0-2.134-1.339h-.356V527.1h1.423a.636.636,0,0,1,.565.565Z" transform="translate(-114.485 -515.113)" fill="#fff"/>
          <path id="Path_21" data-name="Path 21" d="M199.031,515.113h6.276v.565h-1.674V522.9a9.685,9.685,0,0,0,.188,2.05,2.519,2.519,0,0,0,2.615,2.3q3.347-.021,3.368-4.352v-7.218h-1.674v-.565h4.122v.565H210.58v7.093a8.376,8.376,0,0,1-.335,2.531q-.879,2.574-4.247,2.574-5.252-.021-5.293-4.812v-7.385h-1.674Z" transform="translate(-154.614 -515.113)" fill="#fff"/>
          <path id="Path_22" data-name="Path 22" d="M266.679,527.666V527.1h1.486l-1.569-4.017h-4.164l-1.506,4.017H262.1a1.187,1.187,0,0,1,.23.021q.271.042.272.544H258.75V527.1h1.339l4.582-11.988h1.548l4.938,11.988h.628a1.187,1.187,0,0,1,.23.021q.271.042.272.544Zm-2.2-10.022-1.8,4.812h3.661Z" transform="translate(-201.006 -515.113)" fill="#fff"/>
          <path id="Path_23" data-name="Path 23" d="M321.281,527.666V527.1h1.674V515.678h-1.674v-.565h6.381v.565h-1.778V527.1h2.155a2.757,2.757,0,0,0,1.109-.209,2.784,2.784,0,0,0,1.255-1.8l.607-1.967h.607l-.084,4.54Z" transform="translate(-249.582 -515.113)" fill="#fff"/>
        </g>
        <g id="Eleven" transform="translate(1.943 17.195)">
          <path id="Path_24" data-name="Path 24" d="M12.685,597.272v.514H8.708v-5.624h3.856v.514H9.3v2h2.908v.506H9.3v2.089Z" transform="translate(-8.708 -592.162)" fill="#fff"/>
          <path id="Path_25" data-name="Path 25" d="M77.072,592.162h.595v5.109h3.149v.514H77.072Z" transform="translate(-61.815 -592.162)" fill="#fff"/>
          <path id="Path_26" data-name="Path 26" d="M146.532,597.272v.514h-3.977v-5.624h3.856v.514H143.15v2h2.908v.506H143.15v2.089Z" transform="translate(-112.685 -592.162)" fill="#fff"/>
          <path id="Path_27" data-name="Path 27" d="M212.131,592.162l-2.491,5.624h-.586l-2.491-5.624h.643l2.153,4.885,2.169-4.885Z" transform="translate(-162.409 -592.162)" fill="#fff"/>
          <path id="Path_28" data-name="Path 28" d="M283.4,597.272v.514h-3.977v-5.624h3.856v.514h-3.262v2h2.908v.506h-2.908v2.089Z" transform="translate(-219.012 -592.162)" fill="#fff"/>
          <path id="Path_29" data-name="Path 29" d="M352.491,592.162v5.624H352l-3.615-4.563v4.563h-.595v-5.624h.49l3.623,4.563v-4.563Z" transform="translate(-272.119 -592.162)" fill="#fff"/>
        </g>
      </g>
    </g>
  </g>
</svg>
